<mxfile host="Electron" modified="2025-09-12T10:27:17.933Z" agent="Mozilla/5.0 (Windows NT 10.0; Win64; x64) AppleWebKit/537.36 (KHTML, like Gecko) draw.io/24.6.4 Chrome/124.0.6367.207 Electron/30.0.6 Safari/537.36" etag="t0AIJX7uYTRFCZgqyxkX" version="24.6.4" type="device">
  <diagram id="рархитектура." name="Страница — 1">
    <mxGraphModel dx="1418" dy="828" grid="1" gridSize="10" guides="1" tooltips="1" connect="1" arrows="1" fold="1" page="1" pageScale="1" pageWidth="850" pageHeight="1100" math="0" shadow="0">
      <root>
        <object label="" code="" name="" fname="" stype="" owner="" criticality="" status="" version="" level="" id="0">
          <mxCell />
        </object>
        <mxCell id="1" parent="0" />
        <mxCell id="архитектура." value="архитектура." style="shape=partialRectangle;html=1;right=0;top=0;bottom=0;fillColor=none;routingCenterX=-0.5;align=left;whiteSpace=wrap;fontColor=#333332;" parent="1" vertex="1">
          <mxGeometry x="80" y="40" width="240" height="40" as="geometry" />
        </mxCell>
        <mxCell id="архитектура.!Name" value="Архитектура предприятия (стартовая страница)" style="text;html=1;strokeColor=none;fillColor=none;align=left;verticalAlign=top;whiteSpace=wrap;fontColor=#333333;" parent="архитектура." vertex="1">
          <mxGeometry y="1" width="750" height="19" relative="1" as="geometry" />
        </mxCell>
        <mxCell id="архитектура.!Note" value="&lt;div&gt;Архитектурные представления структуры и деятельности компании&lt;/div&gt;&lt;div&gt;&lt;br&gt;&lt;/div&gt;&lt;div&gt;Краткая справка&lt;/div&gt;&lt;div&gt;В меню &quot;Настройка&quot; можно выбрать edit \ veiw&lt;/div&gt;" style="shape=note;size=20;whiteSpace=wrap;html=1;align=left;verticalAlign=top;" parent="1" vertex="1">
          <mxGeometry x="80" y="160" width="680" height="120" as="geometry" />
        </mxCell>
      </root>
    </mxGraphModel>
  </diagram>
</mxfile>
